<?xml version="1.0" standalone="no"?>
<!DOCTYPE svg PUBLIC "-//W3C//DTD SVG 20010904//EN"
 "http://www.w3.org/TR/2001/REC-SVG-20010904/DTD/svg10.dtd">
<svg version="1.0" xmlns="http://www.w3.org/2000/svg"
 width="355.000000pt" height="352.000000pt" viewBox="0 0 355.000000 352.000000"
 preserveAspectRatio="xMidYMid meet">

<g transform="translate(0.000000,352.000000) scale(0.100000,-0.100000)"
fill="#000000" stroke="none">
<path d="M1570 3459 c-196 -22 -387 -80 -575 -174 -174 -88 -296 -176 -440
-320 -144 -144 -232 -266 -320 -440 -208 -416 -241 -867 -95 -1308 146 -439
448 -786 865 -995 474 -237 1044 -237 1520 0 332 165 596 427 765 758 211 415
245 895 93 1334 -262 759 -1016 1235 -1813 1145z m425 -264 c536 -87 978 -463
1149 -976 60 -180 71 -252 71 -464 0 -162 -4 -206 -23 -294 -67 -299 -186
-515 -402 -731 -216 -217 -438 -338 -733 -402 -148 -32 -438 -32 -584 0 -597
130 -1043 593 -1145 1187 -28 165 -21 409 15 566 137 580 600 1015 1187 1114
105 18 356 18 465 0z"/>
<path d="M751 2094 c-44 -37 -43 -93 3 -151 49 -62 112 -112 186 -147 59 -28
74 -31 165 -31 91 0 106 3 165 31 69 33 181 128 206 175 37 72 -7 149 -84 149
-33 0 -46 -6 -69 -32 -90 -102 -139 -132 -218 -132 -65 0 -104 22 -187 100
-77 75 -114 83 -167 38z"/>
<path d="M2094 2108 c-47 -22 -61 -96 -28 -146 36 -55 117 -122 191 -159 74
-36 81 -38 177 -38 92 0 107 3 166 31 114 55 220 166 220 231 0 50 -45 93 -99
93 -36 0 -46 -6 -113 -73 -60 -60 -82 -76 -122 -86 -85 -21 -153 6 -244 99
-50 50 -65 60 -93 59 -19 0 -44 -5 -55 -11z"/>
<path d="M1704 1510 c-107 -15 -216 -83 -279 -175 -98 -141 -98 -329 0 -470
43 -63 97 -108 173 -143 51 -24 69 -27 167 -27 104 0 114 2 175 32 212 104
299 358 192 559 -85 162 -251 248 -428 224z m157 -217 c35 -19 64 -43 84 -71
27 -39 30 -51 30 -121 0 -68 -3 -83 -27 -119 -86 -129 -280 -129 -365 0 -38
57 -44 157 -14 216 56 109 182 150 292 95z"/>
</g>
</svg>
